<?xml version="1.0" encoding="UTF-8" standalone="no"?>
<!DOCTYPE svg PUBLIC "-//W3C//DTD SVG 1.1//EN"
 "http://www.w3.org/Graphics/SVG/1.1/DTD/svg11.dtd">
<!-- Generated by graphviz version 14.1.1 (20251213.1925)
 -->
<!-- Title: BPlusTree Pages: 1 -->
<svg width="2351pt" height="674pt"
 viewBox="0.00 0.00 2351.00 674.00" xmlns="http://www.w3.org/2000/svg" xmlns:xlink="http://www.w3.org/1999/xlink">
<g id="graph0" class="graph" transform="scale(1 1) rotate(0) translate(4 669.65)">
<title>BPlusTree</title>
<polygon fill="white" stroke="none" points="-4,4 -4,-669.65 2347.2,-669.65 2347.2,4 -4,4"/>
<text xml:space="preserve" text-anchor="middle" x="1171.6" y="-137.85" font-family="Times,serif" font-size="12.00">B+ Tree for 10 Million Records</text>
<text xml:space="preserve" text-anchor="middle" x="1171.6" y="-123.6" font-family="Times,serif" font-size="12.00">━━━━━━━━━━━━━━━━━━━━━━━━━━━━━━━━━━━━━━━━━━━━━━━━━━━━━</text>
<text xml:space="preserve" text-anchor="middle" x="1171.6" y="-106.35" font-family="Times,serif" font-size="12.00">PAGE SIZE: 8 KB (all nodes)</text>
<text xml:space="preserve" text-anchor="middle" x="1171.6" y="-92.1" font-family="Times,serif" font-size="12.00">Primary Key: 8 bytes (INT64) | Row Data: 24 bytes total</text>
<text xml:space="preserve" text-anchor="middle" x="1171.6" y="-63.85" font-family="Times,serif" font-size="12.00">Tree Statistics:</text>
<text xml:space="preserve" text-anchor="middle" x="1171.6" y="-49.6" font-family="Times,serif" font-size="12.00"> &#160;• Height: 3 levels (root at level 0)</text>
<text xml:space="preserve" text-anchor="middle" x="1171.6" y="-35.35" font-family="Times,serif" font-size="12.00"> &#160;• Level 0: 1 root node</text>
<text xml:space="preserve" text-anchor="middle" x="1171.6" y="-21.1" font-family="Times,serif" font-size="12.00"> &#160;• Level 1: 501 internal nodes</text>
<text xml:space="preserve" text-anchor="middle" x="1171.6" y="-6.85" font-family="Times,serif" font-size="12.00"> &#160;• Level 2: ~40,000 leaf nodes</text>
<!-- root -->
<g id="node1" class="node">
<title>root</title>
<polygon fill="#4a90e2" stroke="black" points="1452.03,-665.65 1232.78,-665.65 1232.78,-579.25 1452.03,-579.25 1452.03,-665.65"/>
<text xml:space="preserve" text-anchor="middle" x="1342.4" y="-632.43" font-family="Arial" font-size="12.00" fill="white">ROOT NODE</text>
<text xml:space="preserve" text-anchor="middle" x="1342.4" y="-618.18" font-family="Arial" font-size="12.00" fill="white">500 keys, 501 pointers</text>
<text xml:space="preserve" text-anchor="middle" x="1342.4" y="-603.93" font-family="Arial" font-size="12.00" fill="white">Keys: 125K | 250K | 375K | ... | 9.875M</text>
</g>
<!-- i1 -->
<g id="node2" class="node">
<title>i1</title>
<polygon fill="#f5a623" stroke="black" points="822.4,-481.25 678.4,-481.25 678.4,-409.25 822.4,-409.25 822.4,-481.25"/>
<text xml:space="preserve" text-anchor="middle" x="750.4" y="-455.23" font-family="Arial" font-size="12.00" fill="white">INTERNAL&#45;1</text>
<text xml:space="preserve" text-anchor="middle" x="750.4" y="-440.98" font-family="Arial" font-size="12.00" fill="white">500 keys, 501 ptrs</text>
<text xml:space="preserve" text-anchor="middle" x="750.4" y="-426.73" font-family="Arial" font-size="12.00" fill="white">250 | 500 | 750 | ...</text>
</g>
<!-- root&#45;&gt;i1 -->
<g id="edge1" class="edge">
<title>root&#45;&gt;i1</title>
<path fill="none" stroke="black" d="M1232.42,-589.72C1089.06,-548.37 856.4,-481.25 856.4,-481.25 856.4,-481.25 846.93,-478.12 833.66,-473.74"/>
<polygon fill="black" stroke="black" points="834.89,-470.46 824.3,-470.65 832.7,-477.11 834.89,-470.46"/>
<text xml:space="preserve" text-anchor="middle" x="1051.33" y="-526.75" font-family="Arial" font-size="10.00">ptr 1</text>
</g>
<!-- i2 -->
<g id="node3" class="node">
<title>i2</title>
<polygon fill="#f5a623" stroke="black" points="1015.4,-481.25 871.4,-481.25 871.4,-409.25 1015.4,-409.25 1015.4,-481.25"/>
<text xml:space="preserve" text-anchor="middle" x="943.4" y="-455.23" font-family="Arial" font-size="12.00" fill="white">INTERNAL&#45;2</text>
<text xml:space="preserve" text-anchor="middle" x="943.4" y="-440.98" font-family="Arial" font-size="12.00" fill="white">500 keys, 501 ptrs</text>
<text xml:space="preserve" text-anchor="middle" x="943.4" y="-426.73" font-family="Arial" font-size="12.00" fill="white">125.25K | 125.5K | ...</text>
</g>
<!-- root&#45;&gt;i2 -->
<g id="edge2" class="edge">
<title>root&#45;&gt;i2</title>
<path fill="none" stroke="black" d="M1245.3,-578.82C1178.22,-549.36 1089.95,-510.6 1026.19,-482.6"/>
<polygon fill="black" stroke="black" points="1027.73,-479.46 1017.17,-478.64 1024.92,-485.87 1027.73,-479.46"/>
<text xml:space="preserve" text-anchor="middle" x="1152.65" y="-526.75" font-family="Arial" font-size="10.00">ptr 2</text>
</g>
<!-- i3 -->
<g id="node4" class="node">
<title>i3</title>
<polygon fill="#f5a623" stroke="black" points="1188.4,-481.25 1044.4,-481.25 1044.4,-409.25 1188.4,-409.25 1188.4,-481.25"/>
<text xml:space="preserve" text-anchor="middle" x="1116.4" y="-455.23" font-family="Arial" font-size="12.00" fill="white">INTERNAL&#45;3</text>
<text xml:space="preserve" text-anchor="middle" x="1116.4" y="-440.98" font-family="Arial" font-size="12.00" fill="white">500 keys, 501 ptrs</text>
<text xml:space="preserve" text-anchor="middle" x="1116.4" y="-426.73" font-family="Arial" font-size="12.00" fill="white">250.25K | 250.5K | ...</text>
</g>
<!-- root&#45;&gt;i3 -->
<g id="edge3" class="edge">
<title>root&#45;&gt;i3</title>
<path fill="none" stroke="black" d="M1287.4,-578.82C1251.99,-551.36 1206.15,-515.83 1170.85,-488.46"/>
<polygon fill="black" stroke="black" points="1173.36,-485.98 1163.31,-482.61 1169.07,-491.51 1173.36,-485.98"/>
<text xml:space="preserve" text-anchor="middle" x="1239.15" y="-526.75" font-family="Arial" font-size="10.00">ptr 3</text>
</g>
<!-- idots1 -->
<g id="node5" class="node">
<title>idots1</title>
<polygon fill="#e0e0e0" stroke="black" points="1317.8,-481.25 1217,-481.25 1217,-409.25 1317.8,-409.25 1317.8,-481.25"/>
<text xml:space="preserve" text-anchor="middle" x="1267.4" y="-448.1" font-family="Arial" font-size="12.00">...</text>
<text xml:space="preserve" text-anchor="middle" x="1267.4" y="-433.85" font-family="Arial" font-size="12.00">~245 nodes</text>
</g>
<!-- root&#45;&gt;idots1 -->
<g id="edge4" class="edge">
<title>root&#45;&gt;idots1</title>
<path fill="none" stroke="black" stroke-dasharray="5,2" d="M1324.24,-579.04C1312.95,-552.66 1298.44,-518.77 1286.91,-491.82"/>
<polygon fill="black" stroke="black" points="1290.23,-490.7 1283.08,-482.88 1283.8,-493.45 1290.23,-490.7"/>
<text xml:space="preserve" text-anchor="middle" x="1309.4" y="-526.75" font-family="Arial" font-size="10.00">...</text>
</g>
<!-- i250 -->
<g id="node6" class="node">
<title>i250</title>
<polygon fill="#f5a623" stroke="black" points="1490.4,-481.25 1346.4,-481.25 1346.4,-409.25 1490.4,-409.25 1490.4,-481.25"/>
<text xml:space="preserve" text-anchor="middle" x="1418.4" y="-455.23" font-family="Arial" font-size="12.00" fill="white">INTERNAL&#45;250</text>
<text xml:space="preserve" text-anchor="middle" x="1418.4" y="-440.98" font-family="Arial" font-size="12.00" fill="white">500 keys, 501 ptrs</text>
<text xml:space="preserve" text-anchor="middle" x="1418.4" y="-426.73" font-family="Arial" font-size="12.00" fill="white">4.999M | 5.0M | ...</text>
</g>
<!-- root&#45;&gt;i250 -->
<g id="edge5" class="edge">
<title>root&#45;&gt;i250</title>
<path fill="none" stroke="black" d="M1360.8,-579.04C1372.24,-552.66 1386.94,-518.77 1398.63,-491.82"/>
<polygon fill="black" stroke="black" points="1401.74,-493.45 1402.51,-482.88 1395.32,-490.66 1401.74,-493.45"/>
<text xml:space="preserve" text-anchor="middle" x="1397.68" y="-526.75" font-family="Arial" font-size="10.00">ptr 250</text>
</g>
<!-- idots2 -->
<g id="node7" class="node">
<title>idots2</title>
<polygon fill="#e0e0e0" stroke="black" points="1619.8,-481.25 1519,-481.25 1519,-409.25 1619.8,-409.25 1619.8,-481.25"/>
<text xml:space="preserve" text-anchor="middle" x="1569.4" y="-448.1" font-family="Arial" font-size="12.00">...</text>
<text xml:space="preserve" text-anchor="middle" x="1569.4" y="-433.85" font-family="Arial" font-size="12.00">~245 nodes</text>
</g>
<!-- root&#45;&gt;idots2 -->
<g id="edge6" class="edge">
<title>root&#45;&gt;idots2</title>
<path fill="none" stroke="black" stroke-dasharray="5,2" d="M1397.64,-578.82C1433.21,-551.36 1479.25,-515.83 1514.71,-488.46"/>
<polygon fill="black" stroke="black" points="1516.51,-491.49 1522.29,-482.61 1512.23,-485.95 1516.51,-491.49"/>
<text xml:space="preserve" text-anchor="middle" x="1467.21" y="-526.75" font-family="Arial" font-size="10.00">...</text>
</g>
<!-- i500 -->
<g id="node8" class="node">
<title>i500</title>
<polygon fill="#f5a623" stroke="black" points="1792.4,-481.25 1648.4,-481.25 1648.4,-409.25 1792.4,-409.25 1792.4,-481.25"/>
<text xml:space="preserve" text-anchor="middle" x="1720.4" y="-455.23" font-family="Arial" font-size="12.00" fill="white">INTERNAL&#45;500</text>
<text xml:space="preserve" text-anchor="middle" x="1720.4" y="-440.98" font-family="Arial" font-size="12.00" fill="white">500 keys, 501 ptrs</text>
<text xml:space="preserve" text-anchor="middle" x="1720.4" y="-426.73" font-family="Arial" font-size="12.00" fill="white">9.874M | 9.875M | ...</text>
</g>
<!-- root&#45;&gt;i500 -->
<g id="edge7" class="edge">
<title>root&#45;&gt;i500</title>
<path fill="none" stroke="black" d="M1434.39,-578.82C1496.46,-550.04 1577.7,-512.39 1637.73,-484.57"/>
<polygon fill="black" stroke="black" points="1638.95,-487.86 1646.55,-480.48 1636,-481.51 1638.95,-487.86"/>
<text xml:space="preserve" text-anchor="middle" x="1557.73" y="-526.75" font-family="Arial" font-size="10.00">ptr 500</text>
</g>
<!-- i501 -->
<g id="node9" class="node">
<title>i501</title>
<polygon fill="#f5a623" stroke="black" points="1993.4,-481.25 1849.4,-481.25 1849.4,-409.25 1993.4,-409.25 1993.4,-481.25"/>
<text xml:space="preserve" text-anchor="middle" x="1921.4" y="-455.23" font-family="Arial" font-size="12.00" fill="white">INTERNAL&#45;501</text>
<text xml:space="preserve" text-anchor="middle" x="1921.4" y="-440.98" font-family="Arial" font-size="12.00" fill="white">500 keys, 501 ptrs</text>
<text xml:space="preserve" text-anchor="middle" x="1921.4" y="-426.73" font-family="Arial" font-size="12.00" fill="white">9.999M | 10.0M</text>
</g>
<!-- root&#45;&gt;i501 -->
<g id="edge8" class="edge">
<title>root&#45;&gt;i501</title>
<path fill="none" stroke="black" d="M1452.3,-588.31C1589.79,-546.86 1807.4,-481.25 1807.4,-481.25 1807.4,-481.25 1820.8,-477.14 1838.41,-471.73"/>
<polygon fill="black" stroke="black" points="1839.22,-475.14 1847.76,-468.86 1837.17,-468.45 1839.22,-475.14"/>
<text xml:space="preserve" text-anchor="middle" x="1671.99" y="-526.75" font-family="Arial" font-size="10.00">ptr 501</text>
</g>
<!-- l1 -->
<g id="node10" class="node">
<title>l1</title>
<polygon fill="#7ed321" stroke="black" points="172.8,-311.25 0,-311.25 0,-167.25 172.8,-167.25 172.8,-311.25"/>
<text xml:space="preserve" text-anchor="middle" x="86.4" y="-291.98" font-family="Arial" font-size="12.00">LEAF&#45;1</text>
<text xml:space="preserve" text-anchor="middle" x="86.4" y="-277.73" font-family="Arial" font-size="12.00">250 records</text>
<text xml:space="preserve" text-anchor="middle" x="86.4" y="-263.48" font-family="Arial" font-size="12.00">1: Adventure, AK</text>
<text xml:space="preserve" text-anchor="middle" x="86.4" y="-249.22" font-family="Arial" font-size="12.00">2: Comedy, AZ</text>
<text xml:space="preserve" text-anchor="middle" x="86.4" y="-234.97" font-family="Arial" font-size="12.00">3: Drama, AR</text>
<text xml:space="preserve" text-anchor="middle" x="86.4" y="-220.72" font-family="Arial" font-size="12.00">4: Thriller, CA</text>
<text xml:space="preserve" text-anchor="middle" x="86.4" y="-206.47" font-family="Arial" font-size="12.00">5: Horror, CO</text>
<text xml:space="preserve" text-anchor="middle" x="86.4" y="-192.22" font-family="Arial" font-size="12.00">...</text>
<text xml:space="preserve" text-anchor="middle" x="86.4" y="-177.97" font-family="Arial" font-size="12.00">250: Genre, State</text>
</g>
<!-- i1&#45;&gt;l1 -->
<g id="edge9" class="edge">
<title>i1&#45;&gt;l1</title>
<path fill="none" stroke="black" d="M677.97,-426.24C531.81,-389.91 215.4,-311.25 215.4,-311.25 215.4,-311.25 201.69,-303.7 183.21,-293.53"/>
<polygon fill="black" stroke="black" points="184.93,-290.49 174.49,-288.73 181.56,-296.62 184.93,-290.49"/>
<text xml:space="preserve" text-anchor="middle" x="444.73" y="-356.75" font-family="Arial" font-size="10.00">ptr 1</text>
</g>
<!-- l2 -->
<g id="node11" class="node">
<title>l2</title>
<polygon fill="#7ed321" stroke="black" points="402.8,-311.25 230,-311.25 230,-167.25 402.8,-167.25 402.8,-311.25"/>
<text xml:space="preserve" text-anchor="middle" x="316.4" y="-277.73" font-family="Arial" font-size="12.00">LEAF&#45;2</text>
<text xml:space="preserve" text-anchor="middle" x="316.4" y="-263.48" font-family="Arial" font-size="12.00">250 records</text>
<text xml:space="preserve" text-anchor="middle" x="316.4" y="-249.22" font-family="Arial" font-size="12.00">251&#45;500</text>
<text xml:space="preserve" text-anchor="middle" x="316.4" y="-234.97" font-family="Arial" font-size="12.00">6: Romance, CT</text>
<text xml:space="preserve" text-anchor="middle" x="316.4" y="-220.72" font-family="Arial" font-size="12.00">7: Crime, DE</text>
<text xml:space="preserve" text-anchor="middle" x="316.4" y="-206.47" font-family="Arial" font-size="12.00">8: Mystery, FL</text>
<text xml:space="preserve" text-anchor="middle" x="316.4" y="-192.22" font-family="Arial" font-size="12.00">...</text>
</g>
<!-- i1&#45;&gt;l2 -->
<g id="edge10" class="edge">
<title>i1&#45;&gt;l2</title>
<path fill="none" stroke="black" d="M678.12,-412.73C587.93,-373.4 445.4,-311.25 445.4,-311.25 445.4,-311.25 431.69,-303.7 413.21,-293.53"/>
<polygon fill="black" stroke="black" points="414.93,-290.49 404.49,-288.73 411.56,-296.62 414.93,-290.49"/>
<text xml:space="preserve" text-anchor="middle" x="580.33" y="-356.75" font-family="Arial" font-size="10.00">ptr 2</text>
</g>
<!-- l3 -->
<g id="node12" class="node">
<title>l3</title>
<polygon fill="#7ed321" stroke="black" points="632.8,-311.25 460,-311.25 460,-167.25 632.8,-167.25 632.8,-311.25"/>
<text xml:space="preserve" text-anchor="middle" x="546.4" y="-270.6" font-family="Arial" font-size="12.00">LEAF&#45;3</text>
<text xml:space="preserve" text-anchor="middle" x="546.4" y="-256.35" font-family="Arial" font-size="12.00">250 records</text>
<text xml:space="preserve" text-anchor="middle" x="546.4" y="-242.1" font-family="Arial" font-size="12.00">501&#45;750</text>
<text xml:space="preserve" text-anchor="middle" x="546.4" y="-227.85" font-family="Arial" font-size="12.00">9: SciFi, GA</text>
<text xml:space="preserve" text-anchor="middle" x="546.4" y="-213.6" font-family="Arial" font-size="12.00">10: Fantasy, HI</text>
<text xml:space="preserve" text-anchor="middle" x="546.4" y="-199.35" font-family="Arial" font-size="12.00">...</text>
</g>
<!-- i1&#45;&gt;l3 -->
<g id="edge11" class="edge">
<title>i1&#45;&gt;l3</title>
<path fill="none" stroke="black" d="M715.33,-409.18C690.65,-384.5 656.61,-350.46 625.55,-319.4"/>
<polygon fill="black" stroke="black" points="628.34,-317.24 618.8,-312.65 623.39,-322.19 628.34,-317.24"/>
<text xml:space="preserve" text-anchor="middle" x="676.42" y="-356.75" font-family="Arial" font-size="10.00">ptr 3</text>
</g>
<!-- l4 -->
<g id="node13" class="node">
<title>l4</title>
<polygon fill="#7ed321" stroke="black" points="862.8,-311.25 690,-311.25 690,-167.25 862.8,-167.25 862.8,-311.25"/>
<text xml:space="preserve" text-anchor="middle" x="776.4" y="-256.35" font-family="Arial" font-size="12.00">LEAF&#45;4</text>
<text xml:space="preserve" text-anchor="middle" x="776.4" y="-242.1" font-family="Arial" font-size="12.00">250 records</text>
<text xml:space="preserve" text-anchor="middle" x="776.4" y="-227.85" font-family="Arial" font-size="12.00">751&#45;1000</text>
<text xml:space="preserve" text-anchor="middle" x="776.4" y="-213.6" font-family="Arial" font-size="12.00">...</text>
</g>
<!-- i1&#45;&gt;l4 -->
<g id="edge12" class="edge">
<title>i1&#45;&gt;l4</title>
<path fill="none" stroke="black" d="M754.87,-409.18C757.9,-385.44 762.02,-353.05 765.86,-322.97"/>
<polygon fill="black" stroke="black" points="769.33,-323.44 767.12,-313.08 762.38,-322.56 769.33,-323.44"/>
<text xml:space="preserve" text-anchor="middle" x="771.59" y="-356.75" font-family="Arial" font-size="10.00">ptr 4</text>
</g>
<!-- ldots1 -->
<g id="node14" class="node">
<title>ldots1</title>
<polygon fill="#e0e0e0" stroke="black" points="1064.4,-311.25 920.4,-311.25 920.4,-167.25 1064.4,-167.25 1064.4,-311.25"/>
<text xml:space="preserve" text-anchor="middle" x="992.4" y="-249.22" font-family="Arial" font-size="12.00">...</text>
<text xml:space="preserve" text-anchor="middle" x="992.4" y="-234.97" font-family="Arial" font-size="12.00">~497 more leaves</text>
<text xml:space="preserve" text-anchor="middle" x="992.4" y="-220.72" font-family="Arial" font-size="12.00">under INT&#45;1</text>
</g>
<!-- i1&#45;&gt;ldots1 -->
<g id="edge13" class="edge">
<title>i1&#45;&gt;ldots1</title>
<path fill="none" stroke="black" stroke-dasharray="5,2" d="M792.28,-408.95C825.05,-381.33 871.6,-342.08 911.56,-308.39"/>
<polygon fill="black" stroke="black" points="913.7,-311.17 919.09,-302.05 909.19,-305.82 913.7,-311.17"/>
<text xml:space="preserve" text-anchor="middle" x="879.04" y="-356.75" font-family="Arial" font-size="10.00">...497 ptrs</text>
</g>
<!-- l1000 -->
<g id="node15" class="node">
<title>l1000</title>
<polygon fill="#7ed321" stroke="black" points="1294.8,-311.25 1122,-311.25 1122,-167.25 1294.8,-167.25 1294.8,-311.25"/>
<text xml:space="preserve" text-anchor="middle" x="1208.4" y="-249.22" font-family="Arial" font-size="12.00">LEAF&#45;1000</text>
<text xml:space="preserve" text-anchor="middle" x="1208.4" y="-234.97" font-family="Arial" font-size="12.00">250 records</text>
<text xml:space="preserve" text-anchor="middle" x="1208.4" y="-220.72" font-family="Arial" font-size="12.00">249,751&#45;250,000</text>
</g>
<!-- i2&#45;&gt;l1000 -->
<g id="edge14" class="edge">
<title>i2&#45;&gt;l1000</title>
<path fill="none" stroke="black" d="M989.26,-408.95C1023.21,-382.81 1070.68,-346.27 1112.76,-313.88"/>
<polygon fill="black" stroke="black" points="1114.66,-316.83 1120.45,-307.95 1110.39,-311.28 1114.66,-316.83"/>
<text xml:space="preserve" text-anchor="middle" x="1079.16" y="-356.75" font-family="Arial" font-size="10.00">some ptr</text>
</g>
<!-- l20000 -->
<g id="node17" class="node">
<title>l20000</title>
<polygon fill="#7ed321" stroke="black" points="1504.8,-311.25 1332,-311.25 1332,-167.25 1504.8,-167.25 1504.8,-311.25"/>
<text xml:space="preserve" text-anchor="middle" x="1418.4" y="-249.22" font-family="Arial" font-size="12.00">LEAF&#45;20,000</text>
<text xml:space="preserve" text-anchor="middle" x="1418.4" y="-234.97" font-family="Arial" font-size="12.00">250 records</text>
<text xml:space="preserve" text-anchor="middle" x="1418.4" y="-220.72" font-family="Arial" font-size="12.00">4,999,751&#45;5,000,000</text>
</g>
<!-- i250&#45;&gt;l20000 -->
<g id="edge15" class="edge">
<title>i250&#45;&gt;l20000</title>
<path fill="none" stroke="black" d="M1418.4,-409.18C1418.4,-385.44 1418.4,-353.05 1418.4,-322.97"/>
<polygon fill="black" stroke="black" points="1421.9,-323.09 1418.4,-313.09 1414.9,-323.09 1421.9,-323.09"/>
<text xml:space="preserve" text-anchor="middle" x="1437.53" y="-356.75" font-family="Arial" font-size="10.00">some ptr</text>
</g>
<!-- l39999 -->
<g id="node19" class="node">
<title>l39999</title>
<polygon fill="#7ed321" stroke="black" points="1795.8,-311.25 1623,-311.25 1623,-167.25 1795.8,-167.25 1795.8,-311.25"/>
<text xml:space="preserve" text-anchor="middle" x="1709.4" y="-249.22" font-family="Arial" font-size="12.00">LEAF&#45;39,999</text>
<text xml:space="preserve" text-anchor="middle" x="1709.4" y="-234.97" font-family="Arial" font-size="12.00">250 records</text>
<text xml:space="preserve" text-anchor="middle" x="1709.4" y="-220.72" font-family="Arial" font-size="12.00">9,999,501&#45;9,999,750</text>
</g>
<!-- i500&#45;&gt;l39999 -->
<g id="edge16" class="edge">
<title>i500&#45;&gt;l39999</title>
<path fill="none" stroke="black" d="M1718.51,-409.18C1717.23,-385.44 1715.48,-353.05 1713.86,-322.97"/>
<polygon fill="black" stroke="black" points="1717.36,-322.89 1713.33,-313.09 1710.37,-323.26 1717.36,-322.89"/>
<text xml:space="preserve" text-anchor="middle" x="1735.01" y="-356.75" font-family="Arial" font-size="10.00">some ptr</text>
</g>
<!-- l40000 -->
<g id="node20" class="node">
<title>l40000</title>
<polygon fill="#7ed321" stroke="black" points="2025.8,-311.25 1853,-311.25 1853,-167.25 2025.8,-167.25 2025.8,-311.25"/>
<text xml:space="preserve" text-anchor="middle" x="1939.4" y="-249.22" font-family="Arial" font-size="12.00">LEAF&#45;40,000</text>
<text xml:space="preserve" text-anchor="middle" x="1939.4" y="-234.97" font-family="Arial" font-size="12.00">250 records</text>
<text xml:space="preserve" text-anchor="middle" x="1939.4" y="-220.72" font-family="Arial" font-size="12.00">9,999,751&#45;10,000,000</text>
</g>
<!-- i501&#45;&gt;l40000 -->
<g id="edge17" class="edge">
<title>i501&#45;&gt;l40000</title>
<path fill="none" stroke="black" d="M1924.49,-409.18C1926.59,-385.44 1929.45,-353.05 1932.1,-322.97"/>
<polygon fill="black" stroke="black" points="1935.58,-323.35 1932.97,-313.09 1928.61,-322.74 1935.58,-323.35"/>
<text xml:space="preserve" text-anchor="middle" x="1944.32" y="-356.75" font-family="Arial" font-size="10.00">last ptr</text>
</g>
<!-- l1&#45;&gt;l2 -->
<g id="edge18" class="edge">
<title>l1&#45;&gt;l2</title>
<path fill="none" stroke="#666666" stroke-dasharray="5,2" d="M173.03,-239.25C187.99,-239.25 203.63,-239.25 218.86,-239.25"/>
<polygon fill="#666666" stroke="#666666" points="228.63,-239.25 218.63,-243.75 224.85,-239.25 218.63,-239.25 218.63,-239.25 218.63,-239.25 224.85,-239.25 218.63,-234.75 228.63,-239.25"/>
<text xml:space="preserve" text-anchor="middle" x="201.4" y="-244.75" font-family="Arial" font-size="10.00">next</text>
</g>
<!-- l2&#45;&gt;l3 -->
<g id="edge19" class="edge">
<title>l2&#45;&gt;l3</title>
<path fill="none" stroke="#666666" stroke-dasharray="5,2" d="M403.03,-239.25C417.99,-239.25 433.63,-239.25 448.86,-239.25"/>
<polygon fill="#666666" stroke="#666666" points="458.63,-239.25 448.63,-243.75 454.85,-239.25 448.63,-239.25 448.63,-239.25 448.63,-239.25 454.85,-239.25 448.63,-234.75 458.63,-239.25"/>
<text xml:space="preserve" text-anchor="middle" x="431.4" y="-244.75" font-family="Arial" font-size="10.00">next</text>
</g>
<!-- l3&#45;&gt;l4 -->
<g id="edge20" class="edge">
<title>l3&#45;&gt;l4</title>
<path fill="none" stroke="#666666" stroke-dasharray="5,2" d="M633.03,-239.25C647.99,-239.25 663.63,-239.25 678.86,-239.25"/>
<polygon fill="#666666" stroke="#666666" points="688.63,-239.25 678.63,-243.75 684.85,-239.25 678.63,-239.25 678.63,-239.25 678.63,-239.25 684.85,-239.25 678.63,-234.75 688.63,-239.25"/>
<text xml:space="preserve" text-anchor="middle" x="661.4" y="-244.75" font-family="Arial" font-size="10.00">next</text>
</g>
<!-- l4&#45;&gt;ldots1 -->
<g id="edge21" class="edge">
<title>l4&#45;&gt;ldots1</title>
<path fill="none" stroke="#666666" stroke-dasharray="5,2" d="M863.01,-239.25C878.22,-239.25 894.01,-239.25 909.12,-239.25"/>
<polygon fill="#666666" stroke="#666666" points="918.77,-239.25 908.77,-243.75 914.99,-239.25 908.77,-239.25 908.77,-239.25 908.77,-239.25 914.99,-239.25 908.77,-234.75 918.77,-239.25"/>
<text xml:space="preserve" text-anchor="middle" x="891.6" y="-244.75" font-family="Arial" font-size="10.00">next</text>
</g>
<!-- ldots1&#45;&gt;l1000 -->
<g id="edge22" class="edge">
<title>ldots1&#45;&gt;l1000</title>
<path fill="none" stroke="#666666" stroke-dasharray="5,2" d="M1064.63,-239.25C1079.33,-239.25 1095.03,-239.25 1110.46,-239.25"/>
<polygon fill="#666666" stroke="#666666" points="1120.4,-239.25 1110.4,-243.75 1116.62,-239.25 1110.4,-239.25 1110.4,-239.25 1110.4,-239.25 1116.62,-239.25 1110.4,-234.75 1120.4,-239.25"/>
<text xml:space="preserve" text-anchor="middle" x="1093.2" y="-244.75" font-family="Arial" font-size="10.00">next</text>
</g>
<!-- ldots2 -->
<g id="node16" class="node">
<title>ldots2</title>
<polygon fill="#e0e0e0" stroke="black" points="2184.2,-311.25 2054.6,-311.25 2054.6,-167.25 2184.2,-167.25 2184.2,-311.25"/>
<text xml:space="preserve" text-anchor="middle" x="2119.4" y="-242.1" font-family="Arial" font-size="12.00">...</text>
<text xml:space="preserve" text-anchor="middle" x="2119.4" y="-227.85" font-family="Arial" font-size="12.00">~19,000 leaves</text>
</g>
<!-- l1000&#45;&gt;ldots2 -->
<g id="edge23" class="edge">
<title>l1000&#45;&gt;ldots2</title>
<path fill="none" stroke="#666666" stroke-dasharray="5,2" d="M1295.08,-296.51C1308.17,-305.15 1317.4,-311.25 1317.4,-311.25 1317.4,-311.25 1541.03,-346.08 1541.03,-346.08 1541.03,-346.08 1559.78,-346.08 1559.78,-346.08 1559.78,-346.08 2040.4,-311.25 2040.4,-311.25 2040.4,-311.25 2042.47,-309.36 2045.94,-306.2"/>
<polygon fill="#666666" stroke="#666666" points="2053.26,-299.53 2048.9,-309.59 2050.47,-302.08 2045.87,-306.27 2045.87,-306.27 2045.87,-306.27 2050.47,-302.08 2042.84,-302.94 2053.26,-299.53"/>
<text xml:space="preserve" text-anchor="middle" x="1550.4" y="-356.75" font-family="Arial" font-size="10.00">next</text>
</g>
<!-- ldots2&#45;&gt;l20000 -->
<g id="edge24" class="edge">
<title>ldots2&#45;&gt;l20000</title>
<path fill="none" stroke="#666666" stroke-dasharray="5,2" d="M2054.16,-298.71C2045.97,-306.17 2040.4,-311.25 2040.4,-311.25 2040.4,-311.25 1662.78,-346.08 1662.78,-346.08 1662.78,-346.08 1644.03,-346.08 1644.03,-346.08 1644.03,-346.08 1576.08,-313.91 1514.76,-284.88"/>
<polygon fill="#666666" stroke="#666666" points="1506.09,-280.77 1517.05,-280.98 1509.51,-282.39 1515.13,-285.05 1515.13,-285.05 1515.13,-285.05 1509.51,-282.39 1513.2,-289.12 1506.09,-280.77"/>
<text xml:space="preserve" text-anchor="middle" x="1653.4" y="-356.75" font-family="Arial" font-size="10.00">next</text>
</g>
<!-- ldots3 -->
<g id="node18" class="node">
<title>ldots3</title>
<polygon fill="#e0e0e0" stroke="black" points="2343.2,-311.25 2213.6,-311.25 2213.6,-167.25 2343.2,-167.25 2343.2,-311.25"/>
<text xml:space="preserve" text-anchor="middle" x="2278.4" y="-242.1" font-family="Arial" font-size="12.00">...</text>
<text xml:space="preserve" text-anchor="middle" x="2278.4" y="-227.85" font-family="Arial" font-size="12.00">~19,000 leaves</text>
</g>
<!-- l20000&#45;&gt;ldots3 -->
<g id="edge25" class="edge">
<title>l20000&#45;&gt;ldots3</title>
<path fill="none" stroke="#666666" stroke-dasharray="5,2" d="M1504.95,-296.11C1543.79,-321.62 1581.03,-346.08 1581.03,-346.08 1581.03,-346.08 1599.78,-346.08 1599.78,-346.08 1599.78,-346.08 2198.4,-311.25 2198.4,-311.25 2198.4,-311.25 2201.05,-308.86 2205.39,-304.96"/>
<polygon fill="#666666" stroke="#666666" points="2212.54,-298.52 2208.12,-308.56 2209.73,-301.05 2205.11,-305.21 2205.11,-305.21 2205.11,-305.21 2209.73,-301.05 2202.1,-301.87 2212.54,-298.52"/>
<text xml:space="preserve" text-anchor="middle" x="1590.4" y="-356.75" font-family="Arial" font-size="10.00">next</text>
</g>
<!-- ldots3&#45;&gt;l39999 -->
<g id="edge26" class="edge">
<title>ldots3&#45;&gt;l39999</title>
<path fill="none" stroke="#666666" stroke-dasharray="5,2" d="M2213.45,-297.71C2204.55,-305.71 2198.4,-311.25 2198.4,-311.25 2198.4,-311.25 2098.78,-346.08 2098.78,-346.08 2098.78,-346.08 2080.03,-346.08 2080.03,-346.08 2080.03,-346.08 1838.4,-311.25 1838.4,-311.25 1838.4,-311.25 1824.44,-303.46 1805.7,-293"/>
<polygon fill="#666666" stroke="#666666" points="1797.22,-288.27 1808.15,-289.21 1800.53,-290.11 1805.96,-293.14 1805.96,-293.14 1805.96,-293.14 1800.53,-290.11 1803.76,-297.07 1797.22,-288.27"/>
<text xml:space="preserve" text-anchor="middle" x="2089.4" y="-356.75" font-family="Arial" font-size="10.00">next</text>
</g>
<!-- l39999&#45;&gt;l40000 -->
<g id="edge27" class="edge">
<title>l39999&#45;&gt;l40000</title>
<path fill="none" stroke="#666666" stroke-dasharray="5,2" d="M1796.03,-239.25C1810.99,-239.25 1826.63,-239.25 1841.86,-239.25"/>
<polygon fill="#666666" stroke="#666666" points="1851.63,-239.25 1841.63,-243.75 1847.85,-239.25 1841.63,-239.25 1841.63,-239.25 1841.63,-239.25 1847.85,-239.25 1841.63,-234.75 1851.63,-239.25"/>
<text xml:space="preserve" text-anchor="middle" x="1824.4" y="-244.75" font-family="Arial" font-size="10.00">next</text>
</g>
</g>
</svg>
